<svg xmlns="http://www.w3.org/2000/svg" viewBox="0 0 512 512" fill="none">
  <rect width="512" height="512" rx="120" fill="#0F172A"/>
  <path d="M145 274c0-53.019 42.981-96 96-96 36.339 0 67.961 20.234 84.257 50.08C341.736 214.453 364.616 204 390.333 204 433.044 204 468 238.956 468 281.667S433.044 359.333 390.333 359.333h-44.8c-53.653 0-103.653-27.157-132.8-72.144C194.578 317.155 145 301.456 145 274Z" fill="#22D3EE"/>
  <path d="M96 192c0-30.928 25.072-56 56-56 23.446 0 43.52 14.408 51.947 34.848A95.558 95.558 0 0 0 152 252c0 4.907.373 9.725 1.096 14.432C121.039 263.301 96 229.944 96 192Z" fill="#F8FAFC" fill-opacity=".94"/>
</svg>
