<svg xmlns="http://www.w3.org/2000/svg" viewBox="0 0 192 192" fill="none">
  <rect width="192" height="192" rx="48" fill="#0F172A"/>
  <path d="M55 102c0-19.882 16.118-36 36-36 13.627 0 25.485 7.588 31.596 18.78C128.776 79.92 137.355 76 147 76c16.017 0 29 12.983 29 29s-12.983 29-29 29h-16.8c-20.12 0-38.87-10.184-49.8-27.054C73.467 118.183 55 112.296 55 102Z" fill="#22D3EE"/>
  <path d="M37 72c0-11.598 9.402-21 21-21 8.792 0 16.32 5.403 19.48 13.068A35.84 35.84 0 0 0 58 95c0 1.84.14 3.647.411 5.412C46.39 99.238 37 86.729 37 72Z" fill="#F8FAFC" fill-opacity=".94"/>
</svg>
